#!OML:ASF H:\Male1\Project 1\Capture day 1\Session 1\Male1.ASF
:FULLY-SPECIFIED
:DEGREES
363
root -22.189 14.814 -0.492188 657.873 -267.72 -781.714
lowerback 5.28239 1.51242 -6.90762
upperback 4.20162 1.91625 -2.00525
thorax 1.24378 0.898357 1.71676
lowerneck -3.37643 4.80523 13.3715
upperneck 12.1144 6.74712 -9.25726
head 4.94305 3.48212 -4.69158
rclavicle 7.15625e-015 -9.54166e-015
rhumerus -29.6849 -2.85028 -90.7535
rradius 31.3151
rwrist -14.8702
rhand -16.6073 1.68567
rfingers 7.12502
rthumb 9.6142 -28.075
lclavicle 7.15625e-015 -9.54166e-015
lhumerus -23.2268 -15.4898 94.227
lradius 29.5851
lwrist -1.36065
lhand -20.4011 10.9009
lfingers 7.12502
lthumb 5.9526 40.7973
rfemur -23.3762 10.0014 21.2858
rtibia 54.8711
rfoot -23.2932 -18.1395
rtoes -35.2184
lfemur -1.76146 -15.5145 -31.1308
ltibia 27.2469
lfoot -29.6242 23.3439
ltoes 2.50671
364
root -22.1206 14.8216 -0.500327 654.856 -267.7 -784.796
lowerback 5.31929 1.44972 -7.02065
upperback 4.18133 1.82337 -1.99498
thorax 1.20689 0.850631 1.79319
lowerneck -3.52332 4.72836 13.2873
upperneck 12.1556 6.63535 -9.29618
head 4.96531 3.41796 -4.69552
rclavicle -3.97569e-015 -7.95139e-015
rhumerus -29.8476 -3.00668 -90.6553
rradius 31.2449
rwrist -14.7359
rhand -16.5917 1.6769
rfingers 7.12502
rthumb 9.6293 -28.083
lclavicle -3.97569e-015 -7.95139e-015
lhumerus -23.5154 -14.906 94.094
lradius 28.8813
lwrist -1.80198
lhand -20.2686 10.8267
lfingers 7.12502
lthumb 6.08052 40.7194
rfemur -24.4443 9.67209 21.2533
rtibia 54.8572
rfoot -23.1446 -18.1028
rtoes -35.0948
lfemur -1.04414 -15.7015 -31.3692
ltibia 26.3948
lfoot -29.6647 23.673
ltoes 2.66486
365
root -22.0471 14.8288 -0.508 651.924 -267.689 -787.796
lowerback 5.3581 1.38978 -7.11135
upperback 4.16928 1.73543 -1.98479
thorax 1.17793 0.805607 1.8571
lowerneck -3.70314 4.66204 13.1933
upperneck 12.2169 6.52503 -9.25328
head 4.99712 3.35747 -4.67079
rclavicle 2.78299e-015 -2.70347e-014
rhumerus -29.9786 -3.19322 -90.5394
rradius 31.0978
rwrist -14.596
rhand -16.5539 1.69685
rfingers 7.12502
rthumb 9.66579 -28.0614
lclavicle 2.78299e-015 -2.70347e-014
lhumerus -23.807 -14.1678 93.9006
lradius 28.1756
lwrist -2.23006
lhand -20.0479 10.9154
lfingers 7.12502
lthumb 6.29361 40.8019
rfemur -25.4669 9.47155 21.2005
rtibia 54.5164
rfoot -22.9156 -17.814
rtoes -35.3027
lfemur -0.293998 -15.845 -31.5903
ltibia 25.5069
lfoot -29.6803 23.9774
ltoes 2.80123
366
root -21.9695 14.8353 -0.515095 647.922 -267.7 -791.847
lowerback 5.4236 1.34368 -7.18913
upperback 4.17118 1.66514 -1.97146
thorax 1.14763 0.769656 1.91585
lowerneck -3.87659 4.6204 13.1066
upperneck 12.2538 6.44064 -9.16445
head 5.02272 3.31196 -4.6307
rclavicle 9.34288e-015 -2.54444e-014
rhumerus -30.0657 -3.3817 -90.4124
rradius 30.8794
rwrist -14.4494
rhand -16.4927 1.73233
rfingers 7.12502
rthumb 9.72482 -28.0232
lclavicle 9.34288e-015 -2.54444e-014
lhumerus -24.1118 -13.2839 93.6472
lradius 27.4595
lwrist -2.715
lhand -19.8352 11.0411
lfingers 7.12502
lthumb 6.49887 40.9213
rfemur -26.4231 9.42079 21.1286
rtibia 53.8779
rfoot -22.6244 -17.394
rtoes -35.6997
lfemur 0.499432 -15.904 -31.8007
ltibia 24.5958
lfoot -29.6702 24.2751
ltoes 2.85268
367
root -21.8874 14.8413 -0.521164 643.662 -267.732 -796.132
lowerback 5.50703 1.30288 -7.23743
upperback 4.19121 1.60263 -1.94533
thorax 1.12594 0.737568 1.97102
lowerneck -4.02062 4.60712 13.0297
upperneck 12.255 6.39221 -9.05104
head 5.03641 3.28592 -4.58219
rclavicle 9.93923e-015 2.62396e-014
rhumerus -30.1147 -3.56974 -90.2691
rradius 30.6097
rwrist -14.2926
rhand -16.4239 1.75395
rfingers 7.12502
rthumb 9.79117 -27.9984
lclavicle 9.93923e-015 2.62396e-014
lhumerus -24.4437 -12.305 93.35
lradius 26.748
lwrist -3.25106
lhand -19.6685 11.186
lfingers 7.12502
lthumb 6.65985 41.0612
rfemur -27.2837 9.48968 21.0647
rtibia 52.9746
rfoot -22.408 -16.981
rtoes -35.9265
lfemur 1.33688 -15.8922 -31.9759
ltibia 23.6707
lfoot -29.6169 24.5597
ltoes 2.78115
368
root -21.8004 14.8471 -0.525753 639.787 -267.801 -799.988
lowerback 5.61435 1.26288 -7.23269
upperback 4.23612 1.54282 -1.89931
thorax 1.11712 0.706954 2.01705
lowerneck -4.09866 4.61296 12.9822
upperneck 12.1861 6.37368 -8.95651
head 5.02244 3.27546 -4.54356
rclavicle -3.57812e-015 -1.11319e-014
rhumerus -30.1332 -3.7679 -90.1054
rradius 30.3067
rwrist -14.1198
rhand -16.3527 1.74807
rfingers 7.12502
rthumb 9.85991 -28.0011
lclavicle -3.57812e-015 -1.11319e-014
lhumerus -24.8061 -11.2868 93.0232
lradius 26.0579
lwrist -3.81715
lhand -19.5371 11.3593
lfingers 7.12502
lthumb 6.78673 41.2305
rfemur -28.0078 9.64038 21.0423
rtibia 51.8497
rfoot -22.2367 -16.7326
rtoes -35.8582
lfemur 2.24116 -15.831 -32.0972
ltibia 22.7344
lfoot -29.5214 24.8204
ltoes 2.64016
369
root -21.7092 14.853 -0.528864 635.661 -267.91 -804.067
lowerback 5.73337 1.23121 -7.16948
upperback 4.29689 1.49631 -1.83338
thorax 1.11757 0.683338 2.05054
lowerneck -4.09907 4.6351 12.9523
upperneck 12.0576 6.38494 -8.88116
head 4.98152 3.2805 -4.51327
rclavicle 1.63003e-014 -2.14687e-014
rhumerus -30.1336 -3.97949 -89.921
rradius 29.9802
rwrist -13.9734
rhand -16.3026 1.7573
rfingers 7.12502
rthumb 9.9082 -27.9895
lclavicle 1.63003e-014 -2.14687e-014
lhumerus -25.1976 -10.2639 92.6782
lradius 25.3928
lwrist -4.41551
lhand -19.4277 11.5686
lfingers 7.12502
lthumb 6.89228 41.4364
rfemur -28.6117 9.84339 21.0694
rtibia 50.5533
rfoot -22.1016 -16.7532
rtoes -35.463
lfemur 3.20075 -15.7188 -32.161
ltibia 21.7783
lfoot -29.3912 25.0527
ltoes 2.51344
370
root -21.6134 14.8589 -0.530682 630.74 -268.042 -808.928
lowerback 5.84641 1.21084 -7.06147
upperback 4.36113 1.46717 -1.75182
thorax 1.12367 0.668746 2.07463
lowerneck -4.02969 4.6704 12.9292
upperneck 11.9006 6.42351 -8.82084
head 4.92375 3.29998 -4.48841
rclavicle -1.799e-014 1.11319e-014
rhumerus -30.1288 -4.22369 -89.7092
rradius 29.6338
rwrist -13.841
rhand -16.295 1.79191
rfingers 7.12502
rthumb 9.91559 -27.9546
lclavicle -1.799e-014 1.11319e-014
lhumerus -25.6198 -9.26533 92.3272
lradius 24.7535
lwrist -5.04793
lhand -19.3322 11.8326
lfingers 7.12502
lthumb 6.98448 41.6973
rfemur -29.1211 10.0607 21.1355
rtibia 49.1427
rfoot -21.9926 -17.074
rtoes -34.7268
lfemur 4.20958 -15.5692 -32.1839
ltibia 20.7772
lfoot -29.2201 25.265
ltoes 2.46479
371
root -21.5129 14.8649 -0.531039 624.196 -268.172 -815.422
lowerback 5.92385 1.20619 -6.92893
upperback 4.42134 1.46255 -1.66292
thorax 1.14334 0.666267 2.09209
lowerneck -3.92741 4.7152 12.9107
upperneck 11.7657 6.48306 -8.77387
head 4.87005 3.3307 -4.46793
rclavicle -1.51076e-014 5.56597e-015
rhumerus -30.132 -4.49906 -89.4772
rradius 29.2845
rwrist -13.7244
rhand -16.3349 1.85609
rfingers 7.12502
rthumb 9.87706 -27.8922
lclavicle -1.51076e-014 5.56597e-015
lhumerus -26.0691 -8.32028 91.9724
lradius 24.1369
lwrist -5.7172
lhand -19.2313 12.1017
lfingers 7.12502
lthumb 7.08184 41.9632
rfemur -29.5672 10.2766 21.227
rtibia 47.6756
rfoot -21.9515 -17.6627
rtoes -33.6433
lfemur 5.26739 -15.3856 -32.1827
ltibia 19.6906
lfoot -28.9966 25.4679
ltoes 2.51858
372
root -21.4078 14.8698 -0.530106 615.666 -268.244 -823.899
lowerback 5.99159 1.22302 -6.80235
upperback 4.47159 1.48656 -1.58406
thorax 1.15571 0.678514 2.101
lowerneck -3.80514 4.76839 12.8872
upperneck 11.679 6.55838 -8.70414
head 4.8286 3.37165 -4.43884
rclavicle 2.48481e-015 -2.38542e-015
rhumerus -30.1658 -4.80618 -89.2372
rradius 28.953
rwrist -13.6209
rhand -16.4068 1.93625
rfingers 7.12502
rthumb 9.80773 -27.8153
lclavicle 2.48481e-015 -2.38542e-015
lhumerus -26.5512 -7.45394 91.6081
lradius 23.5306
lwrist -6.42252
lhand -19.1303 12.2759
lfingers 7.12502
lthumb 7.17942 42.1341
rfemur -29.9487 10.4797 21.3121
rtibia 46.2066
rfoot -22.0581 -18.4283
rtoes -32.2075
lfemur 6.40967 -15.1713 -32.2054
ltibia 18.477
lfoot -28.7131 25.6754
ltoes 2.65161
